<svg width="800" height="800" viewBox="0 0 800 800" fill="none" xmlns="http://www.w3.org/2000/svg">
<path d="M450 66.667C559.113 66.667 613.67 66.6666 653.75 91.2266C676.177 104.969 695.03 123.824 708.773 146.25C733.333 186.328 733.333 240.886 733.333 350V383.333C733.333 460.989 733.333 499.82 720.646 530.446C703.73 571.286 671.286 603.73 630.446 620.646C608.436 629.763 582.193 632.326 540.347 633.05C512 633.536 497.83 633.78 486.573 640.327C475.317 646.874 468.306 658.714 454.293 682.394L436.224 712.923C420.117 740.133 379.883 740.133 363.776 712.923L345.707 682.394C331.692 658.714 324.683 646.877 313.427 640.327C302.17 633.78 287.997 633.536 259.652 633.05C217.807 632.326 191.563 629.763 169.553 620.646C128.715 603.73 96.2692 571.286 79.3535 530.446C66.6669 499.82 66.667 460.989 66.667 383.333V350C66.667 240.886 66.6666 186.328 91.2266 146.25C104.969 123.824 123.824 104.969 146.25 91.2266C186.328 66.6666 240.886 66.667 350 66.667H450ZM266.667 391.667C252.86 391.667 241.667 402.86 241.667 416.667C241.667 430.474 252.86 441.667 266.667 441.667H450C463.807 441.667 475 430.473 475 416.667C475 402.86 463.807 391.667 450 391.667H266.667ZM266.667 275C252.86 275 241.667 286.193 241.667 300C241.667 313.807 252.86 325 266.667 325H533.333C547.14 325 558.333 313.807 558.333 300C558.333 286.193 547.14 275 533.333 275H266.667Z" fill="white"/>
</svg>

